<svg width="27" height="24" viewBox="0 0 27 24" fill="none" xmlns="http://www.w3.org/2000/svg">
<path d="M5.21191 8H15.0164M19.3739 8H22.6421M12.8376 16H22.6421M5.21191 16H8.48007" stroke="black" stroke-width="1.5" stroke-linecap="round" stroke-linejoin="round"/>
<path d="M10.6588 18C11.8621 18 12.8375 17.1046 12.8375 16C12.8375 14.8954 11.8621 14 10.6588 14C9.45545 14 8.47998 14.8954 8.47998 16C8.47998 17.1046 9.45545 18 10.6588 18Z" stroke="black" stroke-width="1.5"/>
<path d="M17.1951 10C18.3984 10 19.3739 9.10457 19.3739 8C19.3739 6.89543 18.3984 6 17.1951 6C15.9918 6 15.0164 6.89543 15.0164 8C15.0164 9.10457 15.9918 10 17.1951 10Z" stroke="black" stroke-width="1.5"/>
</svg>
